<?xml version="1.0" standalone="no"?>
<!DOCTYPE svg PUBLIC "-//W3C//DTD SVG 20010904//EN"
 "http://www.w3.org/TR/2001/REC-SVG-20010904/DTD/svg10.dtd">
<svg version="1.0" xmlns="http://www.w3.org/2000/svg"
 width="1024.000000pt" height="1024.000000pt" viewBox="0 0 1024.000000 1024.000000"
 preserveAspectRatio="xMidYMid meet">

<g transform="translate(0.000000,1024.000000) scale(0.100000,-0.100000)"
fill="#000000" stroke="none">
<path d="M5242 7939 c-178 -11 -513 -65 -427 -68 469 -18 698 -90 957 -299
267 -215 461 -501 524 -772 15 -65 18 -160 24 -700 8 -656 9 -669 56 -815 96
-291 362 -556 654 -652 72 -24 292 -29 370 -9 257 66 488 288 582 562 95 277
98 629 7 936 -76 256 -231 551 -420 799 -79 105 -269 300 -282 292 -6 -3 -7
-2 -4 4 9 14 -80 96 -95 87 -6 -4 -8 -3 -4 4 8 13 -125 121 -264 214 -129 86
-409 225 -550 273 -142 49 -301 90 -440 115 -100 17 -448 42 -535 38 -16 0
-85 -4 -153 -9z m1819 -675 c240 -183 389 -407 471 -709 34 -126 47 -315 32
-471 l-8 -89 -8 90 c-11 134 -44 283 -93 431 -96 288 -211 483 -443 753 -24
28 -39 51 -34 51 5 0 43 -25 83 -56z"/>
<path d="M4015 7673 c-60 -14 -92 -29 -128 -62 -38 -34 -97 -115 -97 -133 0
-4 379 -8 843 -8 819 0 843 1 874 20 66 40 47 114 -42 160 l-49 25 -691 2
c-379 0 -699 -1 -710 -4z"/>
<path d="M3284 7423 c-31 -33 -55 -88 -48 -107 7 -18 37 -26 104 -26 71 0 118
24 143 73 18 35 18 39 3 62 -15 23 -22 25 -97 25 -74 0 -82 -2 -105 -27z"/>
<path d="M4050 7223 c-150 -15 -378 -86 -530 -164 -143 -73 -147 -77 -59 -67
256 30 640 -57 881 -198 85 -50 215 -134 207 -134 -3 0 -44 16 -91 34 -105 43
-329 108 -463 135 -148 30 -263 41 -430 40 -176 -2 -172 -7 10 -13 152 -4 170
-8 169 -30 -1 -8 3 -13 8 -10 5 3 19 -2 31 -13 19 -15 20 -16 8 0 -19 25 -6
21 20 -5 l21 -23 -6 22 c-6 18 -3 22 13 20 15 -1 17 -4 10 -13 -7 -9 -7 -19 0
-33 13 -23 70 -26 86 -4 8 10 10 7 12 -13 0 -16 -2 -22 -7 -15 -5 10 -9 8 -13
-4 -4 -9 -3 -13 2 -10 5 3 12 1 16 -5 4 -6 11 -8 16 -5 5 4 9 1 9 -5 0 -7 7
-9 17 -6 10 4 14 4 10 0 -4 -4 -2 -13 4 -21 9 -10 15 -11 26 -2 11 10 12 9 7
-5 -5 -12 3 -20 29 -31 20 -8 39 -20 42 -26 4 -5 -17 2 -46 17 -80 40 -171 72
-289 102 -95 24 -122 26 -285 26 -161 -1 -191 -4 -280 -27 -231 -61 -383 -178
-607 -467 -96 -125 -152 -215 -223 -363 -158 -325 -233 -704 -206 -1044 6 -77
11 -151 11 -166 0 -45 15 -30 29 30 50 217 152 440 280 613 402 545 1102 639
1536 205 92 -91 150 -171 373 -510 197 -299 242 -367 657 -995 148 -223 302
-457 343 -520 204 -313 383 -477 636 -580 155 -64 270 -83 456 -77 122 4 176
10 250 30 301 79 553 230 811 487 210 210 345 398 489 685 130 258 207 481
250 722 25 136 36 404 25 568 l-7 109 -33 -114 c-45 -155 -76 -235 -136 -349
-204 -392 -590 -633 -969 -607 -116 8 -186 26 -299 74 -163 71 -311 194 -440
367 -37 50 -311 455 -607 900 -695 1042 -700 1050 -732 1038 -14 -6 -15 -4 -4
9 10 13 10 18 1 24 -7 4 -9 3 -5 -4 4 -6 -1 -10 -13 -9 -11 0 -18 4 -15 8 2 4
-3 10 -12 13 -8 3 -12 11 -8 17 4 8 1 8 -15 0 -17 -10 -20 -9 -15 4 4 8 1 15
-6 15 -6 0 -8 5 -4 12 4 6 3 8 -4 4 -5 -3 -12 -1 -14 6 -3 9 -6 9 -12 0 -4 -7
-2 -12 3 -12 6 0 11 -5 11 -10 0 -6 -11 -3 -25 6 -14 9 -22 21 -18 28 3 6 2 8
-2 3 -5 -4 -17 1 -28 10 -12 11 -17 12 -12 4 6 -11 5 -12 -6 -5 -8 5 -17 9
-21 9 -5 0 -8 4 -7 9 0 5 -6 13 -15 18 -9 5 -14 14 -10 20 4 5 -4 4 -17 -3
-22 -11 -23 -11 -10 5 12 14 12 16 -2 11 -8 -4 -18 -1 -22 4 -3 6 -10 9 -15 6
-4 -3 -6 4 -3 15 5 17 0 20 -28 21 -28 0 -31 2 -14 9 22 9 17 12 -35 14 -22 1
-34 6 -32 14 1 6 -4 12 -12 12 -8 0 -18 5 -22 12 -5 7 -3 8 6 3 8 -5 11 -4 7
2 -4 5 -20 10 -38 11 -17 0 -37 9 -44 19 -7 10 -17 15 -20 11 -8 -8 -35 15
-35 30 0 5 -14 12 -31 16 -17 3 -28 10 -25 15 3 5 -1 11 -9 15 -8 3 -17 0 -21
-6 -5 -7 -2 -8 6 -3 9 6 11 4 5 -5 -6 -10 -12 -9 -25 8 -27 33 -202 50 -350
35z m-250 -379 c0 -8 -19 -13 -24 -6 -3 5 1 9 9 9 8 0 15 -2 15 -3z m-331
-788 c-2 -2 -58 -6 -124 -8 -66 -3 -97 -2 -70 2 54 7 201 12 194 6z m74 -13
c-13 -2 -33 -2 -45 0 -13 2 -3 4 22 4 25 0 35 -2 23 -4z m-330 -10 c-7 -2 -19
-2 -25 0 -7 3 -2 5 12 5 14 0 19 -2 13 -5z m4521 -1717 c-68 -51 -176 -95
-309 -127 -70 -17 -120 -22 -225 -22 -154 0 -255 18 -365 64 -95 41 -106 55
-14 19 193 -75 449 -86 666 -29 77 20 200 73 238 102 11 8 22 13 24 11 3 -2
-4 -11 -15 -18z"/>
<path d="M3353 6853 c9 -2 23 -2 30 0 6 3 -1 5 -18 5 -16 0 -22 -2 -12 -5z"/>
<path d="M3298 6843 c7 -3 16 -2 19 1 4 3 -2 6 -13 5 -11 0 -14 -3 -6 -6z"/>
<path d="M3696 6829 c4 -8 30 -6 38 2 3 3 -5 5 -19 5 -13 0 -22 -3 -19 -7z"/>
<path d="M3260 5599 c-143 -17 -292 -81 -416 -180 -163 -130 -283 -329 -335
-554 -31 -138 -38 -432 -15 -596 71 -490 300 -919 709 -1330 131 -131 238
-221 377 -313 331 -220 693 -355 1095 -407 139 -18 193 -20 410 -15 170 3 289
11 370 24 132 20 133 20 -41 52 -248 45 -438 142 -628 320 -286 269 -455 567
-522 920 -12 68 -17 202 -24 660 -5 344 -12 600 -19 638 -16 85 -54 190 -109
295 -139 266 -392 452 -662 487 -85 11 -87 11 -190 -1z m-280 -1854 c19 -70
39 -160 24 -112 -8 26 -54 22 -62 -5 -12 -45 -33 94 -39 259 -8 212 3 235 32
68 12 -71 33 -166 45 -210z"/>
<path d="M7032 2724 c-30 -21 -65 -90 -57 -115 6 -17 16 -19 93 -19 99 0 120
9 146 65 16 33 16 38 2 61 -15 22 -23 24 -89 24 -50 0 -80 -5 -95 -16z"/>
<path d="M5017 2623 c-18 -17 -5 -61 26 -90 43 -41 83 -60 174 -84 71 -18 114
-19 605 -19 357 0 544 4 573 11 57 14 128 77 161 140 l24 49 -778 0 c-428 0
-782 -3 -785 -7z"/>
<path d="M0 1020 l0 -1020 1360 0 1360 0 0 100 0 100 -40 0 -40 0 0 -80 c0
-73 -2 -80 -20 -80 -17 0 -20 7 -20 40 0 33 -3 40 -20 40 -18 0 -20 7 -20 60
l0 60 40 0 c33 0 40 3 40 20 0 17 -7 20 -40 20 -33 0 -40 3 -40 20 0 17 -7 20
-40 20 -33 0 -40 3 -40 20 0 18 -7 20 -60 20 -53 0 -60 2 -60 20 0 13 -7 20
-20 20 -13 0 -20 7 -20 20 0 17 -7 20 -40 20 -33 0 -40 3 -40 20 0 17 -7 20
-40 20 l-40 0 0 40 0 40 -40 0 c-33 0 -40 3 -40 20 0 17 -7 20 -40 20 -33 0
-40 3 -40 20 0 13 -7 20 -20 20 -13 0 -20 7 -20 20 0 18 -7 20 -60 20 l-60 0
0 40 0 40 -40 0 c-33 0 -40 3 -40 20 0 17 -7 20 -40 20 -33 0 -40 3 -40 20 0
17 -7 20 -40 20 l-40 0 0 40 0 40 -40 0 c-33 0 -40 3 -40 20 0 17 -7 20 -40
20 l-40 0 0 40 0 40 -40 0 -40 0 0 40 0 40 -40 0 c-33 0 -40 3 -40 20 0 13 -7
20 -20 20 -18 0 -20 7 -20 60 l0 60 -40 0 c-33 0 -40 3 -40 20 0 13 -7 20 -20
20 -13 0 -20 -7 -20 -20 0 -17 -7 -20 -40 -20 l-40 0 0 80 0 80 -60 0 -60 0 0
80 0 80 -100 0 -100 0 0 40 0 40 -40 0 -40 0 0 40 0 40 -40 0 -40 0 0 40 0 40
-120 0 -120 0 0 40 0 40 40 0 40 0 0 40 0 40 -80 0 -80 0 0 -40 c0 -33 -3 -40
-20 -40 -13 0 -20 7 -20 20 0 18 -7 20 -60 20 -53 0 -60 2 -60 20 0 18 7 20
60 20 53 0 60 2 60 20 0 19 -7 20 -100 20 l-100 0 0 -1020z m800 460 l0 -40
-40 0 -40 0 0 40 0 40 40 0 40 0 0 -40z m1360 -1100 c0 -13 -7 -20 -20 -20
-13 0 -20 7 -20 20 0 13 7 20 20 20 13 0 20 -7 20 -20z m320 -100 l0 -40 -40
0 -40 0 0 40 0 40 40 0 40 0 0 -40z"/>
<path d="M4710 1400 c-523 -15 -563 -39 -115 -66 375 -23 1285 -7 1400 25 l30
8 -40 6 c-150 25 -861 40 -1275 27z"/>
<path d="M2800 20 c0 -13 7 -20 20 -20 13 0 20 7 20 20 0 13 -7 20 -20 20 -13
0 -20 -7 -20 -20z"/>
</g>
</svg>
